HIERARCHY
ROOT hips
{
  OFFSET 0 10.074487846421558 1.314567655973056
  CHANNELS 6 Xposition Yposition Zposition Yrotation Xrotation Zrotation
  JOINT spine
  {
    OFFSET -7.042773748992335e-31 0.5690686926897363 0
    CHANNELS 3 Yrotation Xrotation Zrotation
    JOINT chest
    {
      OFFSET 0 1.2435964857087873 0
      CHANNELS 3 Yrotation Xrotation Zrotation
      JOINT upperChest
      {
        OFFSET 0 1.194994586872362 0
        CHANNELS 3 Yrotation Xrotation Zrotation
        JOINT neck
        {
          OFFSET 0 1.515103653293861 0
          CHANNELS 3 Yrotation Xrotation Zrotation
          JOINT head
          {
            OFFSET 0 0.8111851616465653 0
            CHANNELS 3 Yrotation Xrotation Zrotation
            JOINT leftEye
            {
              OFFSET 0.27141371691966987 0.7490044407698551 0.18219031050045686
              CHANNELS 3 Yrotation Xrotation Zrotation
              End Site
              {
                OFFSET 0.27141371691966987 0.7490044407698551 0.18219031050045686
              }
            }
            JOINT rightEye
            {
              OFFSET -0.2714136877644943 0.7490044019380786 0.18219040411850668
              CHANNELS 3 Yrotation Xrotation Zrotation
              End Site
              {
                OFFSET -0.2714136877644943 0.7490044019380786 0.18219040411850668
              }
            }
          }
        }
        JOINT leftShoulder
        {
          OFFSET 0.4137993136083964 1.1593397335613034 0
          CHANNELS 3 Yrotation Xrotation Zrotation
          JOINT leftUpperArm
          {
            OFFSET 1.0096991868951026 0 0
            CHANNELS 3 Yrotation Xrotation Zrotation
            JOINT leftLowerArm
            {
              OFFSET 2.418380967671622 0 0
              CHANNELS 3 Yrotation Xrotation Zrotation
              JOINT leftHand
              {
                OFFSET 2.361538296260114 0 0
                CHANNELS 3 Yrotation Xrotation Zrotation
                JOINT leftIndexProximal
                {
                  OFFSET 0.7243699271447109 0.08118285989887508 0.2022042461579805
                  CHANNELS 3 Yrotation Xrotation Zrotation
                  JOINT leftIndexIntermediate
                  {
                    OFFSET 0.36553107045252053 -0.010567764853200323 -0.014102670024158437
                    CHANNELS 3 Yrotation Xrotation Zrotation
                    JOINT leftIndexDistal
                    {
                      OFFSET 0.22505120770060527 -0.007821041598631284 -0.007511611613336286
                      CHANNELS 3 Yrotation Xrotation Zrotation
                      End Site
                      {
                        OFFSET 0.22505120770060527 -0.007821041598631284 -0.007511611613336286
                      }
                    }
                  }
                }
                JOINT leftLittleProximal
                {
                  OFFSET 0.6721063881632002 0.08118279568569564 -0.3209324945517917
                  CHANNELS 3 Yrotation Xrotation Zrotation
                  JOINT leftLittleIntermediate
                  {
                    OFFSET 0.34587329423120616 5.3042709780015684e-8 -5.929537746918179e-8
                    CHANNELS 3 Yrotation Xrotation Zrotation
                    JOINT leftLittleDistal
                    {
                      OFFSET 0.1992782500022232 0.0030983716482184676 0.0038310952896712935
                      CHANNELS 3 Yrotation Xrotation Zrotation
                      End Site
                      {
                        OFFSET 0.1992782500022232 0.0030983716482184676 0.0038310952896712935
                      }
                    }
                  }
                }
                JOINT leftMiddleProximal
                {
                  OFFSET 0.7301229696860206 0.08118412848995638 0.022516891543707507
                  CHANNELS 3 Yrotation Xrotation Zrotation
                  JOINT leftMiddleIntermediate
                  {
                    OFFSET 0.4076277831942017 -0.000001240188283180288 -1.6203245635504349e-7
                    CHANNELS 3 Yrotation Xrotation Zrotation
                    JOINT leftMiddleDistal
                    {
                      OFFSET 0.2514739255593972 0.0000013850839168938478 -1.8644847207816007e-8
                      CHANNELS 3 Yrotation Xrotation Zrotation
                      End Site
                      {
                        OFFSET 0.2514739255593972 0.0000013850839168938478 -1.8644847207816007e-8
                      }
                    }
                  }
                }
                JOINT leftRingProximal
                {
                  OFFSET 0.7218060861525873 0.08118280646416753 -0.1494689818508163
                  CHANNELS 3 Yrotation Xrotation Zrotation
                  JOINT leftRingIntermediate
                  {
                    OFFSET 0.3781267508900358 0.000001373626195677602 -1.4143108284514483e-7
                    CHANNELS 3 Yrotation Xrotation Zrotation
                    JOINT leftRingDistal
                    {
                      OFFSET 0.21814333268795483 -0.0027137626495670197 -0.004991775417842292
                      CHANNELS 3 Yrotation Xrotation Zrotation
                      End Site
                      {
                        OFFSET 0.21814333268795483 -0.0027137626495670197 -0.004991775417842292
                      }
                    }
                  }
                }
                JOINT leftThumbProximal
                {
                  OFFSET 0.10743676110519984 -0.16423092885053192 -0.07708859146227388
                  CHANNELS 3 Yrotation Xrotation Zrotation
                  JOINT leftThumbIntermediate
                  {
                    OFFSET 0.40350402100066307 -0.01735099334274981 0.315629965828783
                    CHANNELS 3 Yrotation Xrotation Zrotation
                    JOINT leftThumbDistal
                    {
                      OFFSET 0.2320014489535681 -0.01842351809041043 0.21271298411519196
                      CHANNELS 3 Yrotation Xrotation Zrotation
                      End Site
                      {
                        OFFSET 0.2320014489535681 -0.01842351809041043 0.21271298411519196
                      }
                    }
                  }
                }
              }
            }
          }
        }
        JOINT rightShoulder
        {
          OFFSET -0.41379931360839656 1.1593397335613034 0
          CHANNELS 3 Yrotation Xrotation Zrotation
          JOINT rightUpperArm
          {
            OFFSET -1.0096991868951024 0 0
            CHANNELS 3 Yrotation Xrotation Zrotation
            JOINT rightLowerArm
            {
              OFFSET -2.4183809676716232 0 0
              CHANNELS 3 Yrotation Xrotation Zrotation
              JOINT rightHand
              {
                OFFSET -2.3615382962601132 0 0
                CHANNELS 3 Yrotation Xrotation Zrotation
                JOINT rightIndexProximal
                {
                  OFFSET -0.7243699271447109 0.08118285989887508 0.2022042461579805
                  CHANNELS 3 Yrotation Xrotation Zrotation
                  JOINT rightIndexIntermediate
                  {
                    OFFSET -0.36553107045252053 -0.010567764853200323 -0.014102670024158437
                    CHANNELS 3 Yrotation Xrotation Zrotation
                    JOINT rightIndexDistal
                    {
                      OFFSET -0.22505120770060527 -0.007821041598631284 -0.007511611613336286
                      CHANNELS 3 Yrotation Xrotation Zrotation
                      End Site
                      {
                        OFFSET -0.22505120770060527 -0.007821041598631284 -0.007511611613336286
                      }
                    }
                  }
                }
                JOINT rightLittleProximal
                {
                  OFFSET -0.6721063881632002 0.08118279568569564 -0.3209324945517917
                  CHANNELS 3 Yrotation Xrotation Zrotation
                  JOINT rightLittleIntermediate
                  {
                    OFFSET -0.34587329423120616 5.3042709780015684e-8 -5.929537746918179e-8
                    CHANNELS 3 Yrotation Xrotation Zrotation
                    JOINT rightLittleDistal
                    {
                      OFFSET -0.1992782500022232 0.0030983716482184676 0.0038310952896712935
                      CHANNELS 3 Yrotation Xrotation Zrotation
                      End Site
                      {
                        OFFSET -0.1992782500022232 0.0030983716482184676 0.0038310952896712935
                      }
                    }
                  }
                }
                JOINT rightMiddleProximal
                {
                  OFFSET -0.7301229696860206 0.08118412848995638 0.022516891543707507
                  CHANNELS 3 Yrotation Xrotation Zrotation
                  JOINT rightMiddleIntermediate
                  {
                    OFFSET -0.4076277831942017 -0.000001240188283180288 -1.6203245635504349e-7
                    CHANNELS 3 Yrotation Xrotation Zrotation
                    JOINT rightMiddleDistal
                    {
                      OFFSET -0.2514739255593972 0.0000013850839168938478 -1.8644847207816007e-8
                      CHANNELS 3 Yrotation Xrotation Zrotation
                      End Site
                      {
                        OFFSET -0.2514739255593972 0.0000013850839168938478 -1.8644847207816007e-8
                      }
                    }
                  }
                }
                JOINT rightRingProximal
                {
                  OFFSET -0.7218060861525873 0.08118280646416753 -0.1494689818508163
                  CHANNELS 3 Yrotation Xrotation Zrotation
                  JOINT rightRingIntermediate
                  {
                    OFFSET -0.3781267508900358 0.000001373626195677602 -1.4143108284514483e-7
                    CHANNELS 3 Yrotation Xrotation Zrotation
                    JOINT rightRingDistal
                    {
                      OFFSET -0.21814333268795483 -0.0027137626495670197 -0.004991775417842292
                      CHANNELS 3 Yrotation Xrotation Zrotation
                      End Site
                      {
                        OFFSET -0.21814333268795483 -0.0027137626495670197 -0.004991775417842292
                      }
                    }
                  }
                }
                JOINT rightThumbProximal
                {
                  OFFSET -0.10743676110519984 -0.16423092885053192 -0.07708859146227388
                  CHANNELS 3 Yrotation Xrotation Zrotation
                  JOINT rightThumbIntermediate
                  {
                    OFFSET -0.40350402100066307 -0.01735099334274981 0.315629965828783
                    CHANNELS 3 Yrotation Xrotation Zrotation
                    JOINT rightThumbDistal
                    {
                      OFFSET -0.2320014489535681 -0.01842351809041043 0.21271298411519196
                      CHANNELS 3 Yrotation Xrotation Zrotation
                      End Site
                      {
                        OFFSET -0.2320014489535681 -0.01842351809041043 0.21271298411519196
                      }
                    }
                  }
                }
              }
            }
          }
        }
      }
    }
  }
  JOINT leftUpperLeg
  {
    OFFSET 0.8487163290887698 -0.43932186100277326 0
    CHANNELS 3 Yrotation Xrotation Zrotation
    JOINT leftLowerLeg
    {
      OFFSET 0 -3.882816707004296 0
      CHANNELS 3 Yrotation Xrotation Zrotation
      JOINT leftFoot
      {
        OFFSET 0 -4.570431027442807 0.004629272230691511
        CHANNELS 3 Yrotation Xrotation Zrotation
        JOINT leftToes
        {
          OFFSET 0 -0.698875637876343 1.214565366696912
          CHANNELS 3 Yrotation Xrotation Zrotation
          End Site
          {
            OFFSET 0 -0.698875637876343 1.214565366696912
          }
        }
      }
    }
  }
  JOINT rightUpperLeg
  {
    OFFSET -0.8487163290887698 -0.43932186100277326 0
    CHANNELS 3 Yrotation Xrotation Zrotation
    JOINT rightLowerLeg
    {
      OFFSET 0 -3.882816707004296 0
      CHANNELS 3 Yrotation Xrotation Zrotation
      JOINT rightFoot
      {
        OFFSET 0 -4.570431027442807 0.004629272230691511
        CHANNELS 3 Yrotation Xrotation Zrotation
        JOINT rightToes
        {
          OFFSET 0 -0.698875637876343 1.214565366696912
          CHANNELS 3 Yrotation Xrotation Zrotation
          End Site
          {
            OFFSET 0 -0.698875637876343 1.214565366696912
          }
        }
      }
    }
  }
}
MOTION
Frames: 4
Frame Time: 0.03333333333333333
-0.019556932151317596 -0.7254125290387456 -0.045170966535806656 -3.490872364199221 3.694445401017183 -2.13336298145618 1.4664018276131978 2.858012429617375 1.2178377683926558 6.712893422351758 11.512105961123575 1.0088675963164677 0 0 0 -1.3494848955603833 -3.8633531672982158 -1.4383687137105452 -1.761883706480538 -9.235395292638376 -0.6496903846491449 0 0 0 0 0 0 -7.633311042057891 -3.1775583590204044 -9.911596180689957 -12.34729933961054 29.01944619754583 -75.26817121666691 -89.41063726031929 17.41846083033614 10.437852407859776 -27.44258822349028 -1.0300765102802725 18.215277874410162 3.122986925554466 6.73265414914272 -78.45618529523392 5.278068053970059 4.760468947280914 -93.34085192914706 3.717936216560369 1.9427954688294484 -58.400009341418055 24.65461463149901 -6.220309153997975 -85.38069581537424 4.392284273825849 2.714686875997569 -73.62577863949717 2.58041886973453 5.781582491583818 -89.69966604760882 9.77429753343404 1.3645794547394818 -70.67233626396866 5.361235926450825 4.160416877405923 -87.53766524651792 5.378712944610748 2.2414933930070036 -63.45513195621243 18.964227122434924 -1.3585370867267421 -77.3631622132669 4.2782039584542355 5.143908795195148 -92.15319040388525 5.087856047283406 3.00412527299728 -69.00953967199514 -0.025992721190151034 4.978567289300544 16.81133161307967 34.9844757147869 14.22827079914177 3.6748704270238925 -19.603244496984193 -5.316560644572258 0.29079268120920554 16.134178879834447 -3.5994931941881916 16.559930262095328 7.475448285675982 7.237027146547653 61.896335583269405 99.27195391603222 43.44280832878326 -5.293280031504925 19.330969100043518 -5.318080069972245 -4.194397925918588 -3.123804508310109 6.7332838813810065 78.44919620929626 -5.278766016257305 4.761397213840494 93.34073531549792 -3.4468918803582036 1.2713249331129204 62.068364383100715 -24.65390088746254 -6.222138464877438 85.37410441979813 -4.3929736146775396 2.715318310059594 73.62570021687839 -2.5345110745508124 -0.4451881521479874 81.69496725131798 -9.774449137992454 1.364304034645974 70.6654176089162 -5.361958037758222 4.161271195234364 87.53753765310383 -3.6744840102109926 -2.438395721643966 67.21835718694972 -18.964008655166005 -1.3598088202156458 77.35639277613548 -4.2788658362706276 5.144733018524621 92.15305583563911 -2.91686672306875 -3.301114566404506 68.69020436116749 0.025274034164893277 4.975643616636606 -16.816155484183618 -34.985238620894684 14.226317209438683 -3.6770929648951567 20.51061544040019 -5.487104222117021 0.3069567657818612 -2.3084169832240438 -28.71780086770754 5.747123338332684 8.14977432979044 79.16367559467845 8.117785594302452 0.33056326276689535 -4.423218587627436 2.0904286195359756 7.585155791043667e-7 0.1869941561283649 -0.0000015778606832918123 -8.496876099700318 -4.985573786838421 10.057653366861981 -1.9069500029864728 37.39244012601453 -7.533113555903642 0.4328304277726813 -14.536007950917154 -3.126299835997464 -3.1185194019442557 -25.34628336601979 3.2061188067263973
-0.008416665717959404 -0.5780116730206792 -0.04802680388092995 -3.7114841976530837 3.9275507330810044 -1.3252679678381984 1.7379550120566574 2.8182550771987245 1.0752018474877163 7.6276472257256005 11.400623105586462 0.4075144198936618 0 0 0 -1.3532351412420218 -3.072358300053148 -1.919422606303957 -2.186011286650103 -9.007386303655352 0.3532412961250946 0 0 0 0 0 0 -7.426717024561046 -3.095260645707125 -9.283665455495901 -12.729053767785116 31.82094073756486 -75.28696407490408 -91.50182340198249 19.600687172155094 10.807524224684224 -25.54844540622012 -0.8661175145711988 19.908531905193993 3.13376305963002 6.738964833863274 -78.7064947485682 5.277026940191629 4.777572042282271 -93.56024814624479 3.7276036775584442 1.957079262303028 -58.61899181122357 24.77091741243544 -6.019644935330665 -85.78588857072569 4.406898855608518 2.749523940993013 -74.11376536152304 2.5688823542019064 5.799296042742902 -90.19056376038797 9.866411229364514 1.458765837949808 -71.1345084253953 5.36451060059252 4.213903419578868 -88.2308792900153 5.404856201023666 2.3055713106722107 -64.14810769861778 19.049301580723768 -1.200008746453126 -77.85153908721715 4.274094566069927 5.168776550715459 -92.47414826427949 5.095815950641476 3.035718645390465 -69.32906609671589 -0.025992721190151034 4.978567289300544 16.81133161307967 35.14305649238269 13.909287109039745 3.7175312654147 -19.614992670085478 -5.311661552144305 0.46252181568487194 16.724365805723675 -3.725703958399463 16.6784450267766 7.818761843841225 6.258790439222523 61.755646702633136 100.38365836102935 44.64329111132741 -5.262527028711453 19.358165530479923 -5.529071865841335 -3.154490230718774 -3.120499915795745 6.696866065485632 78.0450291297722 -5.281016454068543 4.719736538212666 92.80708594521491 -3.416923995670075 1.2394534896503115 61.53585579849385 -24.468232030100936 -6.298857188809491 84.58912054391708 -4.379837611598076 2.684669670616708 73.19585225239607 -2.4976799559727048 -0.4603700023285616 81.26437569774258 -9.752870813775234 1.3380088191373474 70.2986362715787 -5.3609617205535125 4.1469867461454735 87.35221622003516 -3.6522661742860403 -2.449894774333112 67.0331826710461 -18.922556109018597 -1.4502380536818917 76.9753404970091 -4.280147589166958 5.13685000685034 92.05077402960147 -2.9168123146171974 -3.3011143526063385 68.69022596879276 0.025274034164893277 4.975643616636606 -16.816155484183618 -35.13829381143172 14.024603103020116 -3.663172605685699 20.47245641091616 -5.5102009195785655 0.8363889436791657 -2.1408682676050756 -28.35481496145004 4.546907453793623 11.786413555655777 72.51970041488998 11.313005292960822 0.780185555176008 -4.100022881576775 -1.9444664706577552 0.1892140507293271 0.11478185934490417 0.5101412629106067 -9.121150494339446 -2.0451617472592933 8.325935366257777 0.1629190866822446 33.238717853796075 -6.647678269902246 0.359021181047434 -6.502339805819879 -3.3805566270893017 -2.7929533960220434 -30.930246733887355 3.0248176171357177
0.01773526892066002 -0.29253880314763236 -0.047487661242485046 -3.985699248022577 4.35061868405233 0.21950980911928844 2.204726063172506 2.7553657965058065 0.7429879269771272 9.156201413355145 11.273317386134906 -1.0063585741242396 0 0 0 -1.560990855669535 -1.9884911377664487 -2.2548556646394737 -2.84790843894766 -8.659989126965126 1.7011602045803107 0 0 0 0 0 0 -6.79076941076587 -3.104683019087482 -9.209447091000666 -12.387334548271212 37.44668898725878 -73.66857153641585 -96.48044090958213 22.940398485711782 11.312988482428352 -21.293441766712903 -1.2104405397161386 20.98193842788141 3.1022323562865792 6.695794526726818 -80.04576802493287 5.274682164651109 4.813068132305382 -94.01573169401678 3.7475060572201104 1.9868406540133265 -59.07356401481231 25.08702925281992 -5.442719694171233 -87.1361096095743 4.43859258060036 2.8335397772454822 -75.15917445854092 2.5436309263254246 5.8368926829630485 -91.24298150655095 10.09441216000497 1.7154553098074914 -72.73955269675278 5.369723597946802 4.344252559843827 -89.91956506860532 5.458225018848927 2.4438255267987197 -65.63191574647465 19.26813244612858 -0.7378509922839891 -79.49590350562454 4.263852974003272 5.227319379331723 -93.23018650624765 5.113703705746302 3.1101419634073015 -70.0816421515306 -0.025992721190151034 4.978567289300544 16.81133161307967 35.824114453104244 12.561633913185247 3.8750624455529286 -19.64518211985145 -5.29893575516227 0.9035575728414263 17.88027926421825 -3.980186936069937 16.907257353562812 8.513876356818395 4.333770620048639 61.527745998854854 102.61916265270021 46.86230616733396 -5.170555341403083 19.79998653220347 -5.888729620595719 -1.089700834319831 -3.1615703798598145 6.747899916967532 76.68857970687755 -5.284053944215227 4.645272015541492 91.85277550959923 -3.36253157352717 1.1831247096587674 60.58322728644623 -23.873111589524807 -6.519960948059665 82.03337090653787 -4.360851490410495 2.6415489380115105 72.58891972860266 -2.445510058299536 -0.4813458481678574 80.65667270664716 -9.66914310499456 1.3062947438729589 69.0105201083028 -5.359068386008539 4.121035797108208 87.01557647994345 -3.61179065368955 -2.4706166052901595 66.69676212913438 -18.78589884698763 -1.7375983770591819 75.75588177413377 -4.2821397885925085 5.124368628169267 91.8889258950469 -2.9167630306755505 -3.30109404178063 68.69023199227045 0.025274034164893277 4.975643616636606 -16.816155484183618 -35.608723972953406 13.409779574306006 -3.6107543642644067 20.37534015603622 -5.567276643559417 2.1750510635117104 -1.9756712648091523 -27.025895127509067 1.806896178921332 16.5588022751904 57.58361116040621 14.50603502317888 0.992563926445733 -2.6841985108603654 -4.252065576656571 -0.2844974320156229 -0.7553159880666096 0.44255951929166365 -10.849740931614456 4.781781269889417 4.498974019218344 5.117653324957553 21.285179911126683 -4.201221203258182 0.35930700507427904 14.565403659140678 -2.4058440230619498 0.5305200768750138 -43.80496589433183 0.24882082789354343
0.05463315546512604 -0.07877079777653861 -0.04903462529182434 -3.807364112256884 5.736671425695496 1.4641650873443224 2.4990011440604687 2.515459754705344 0.33340724502778757 10.021916099081105 10.445463334160028 -2.60548971602242 0 0 0 -2.036595962135839 -2.022507960435682 -1.685050418085978 -3.2349522260348973 -8.51561862703103 1.958417022013219 0 0 0 0 0 0 -5.791182349317057 -3.289834425258405 -10.508622771958187 -10.387715550280351 42.486157117051235 -70.00660528978543 -101.91066641252495 24.695537542702038 12.401007559035852 -16.105065992013 -2.0761009540547812 18.5435619478505 3.066694778629875 6.64826965183339 -81.33681120684614 5.272762027128074 4.839355965987201 -94.35344198023657 3.7621253859628414 2.0090567569722175 -59.41057711780328 25.28075036821098 -5.0675499467827105 -88.18489902876162 4.4600660191172 2.89360091332594 -75.90147063255537 2.52535920860547 5.863288817045058 -91.99027064877377 10.27562254800661 1.9348365169037631 -74.008134186296 5.371087630155783 4.43479361152993 -91.09130170180663 5.47853576322761 2.4994878593737644 -66.22573435097027 19.432119395657466 -0.36433584470705654 -80.80467097349268 4.257004558538885 5.264153903045088 -93.70704936659652 5.124329459292644 3.1570238311064105 -70.55626139368161 -0.025992721190151034 4.978567289300544 16.81133161307967 36.523468746975304 11.187711224325303 4.019273350722361 -19.664019694268116 -5.290794006434802 1.1810669349476888 19.171763037464174 -4.255702183716105 17.114454851000133 9.326734681512756 2.1668341272660308 61.37588650612756 104.9714038293466 49.108075380929904 -5.192938986842405 20.865201119680844 -6.261694364430759 1.207837561823111 -3.3407239109966747 7.073661618883976 74.0374588998226 -5.285942769518208 4.5652023201916885 90.82770061631565 -3.303083581572892 1.1236115632062837 59.55986848994563 -22.943304273540573 -6.908878077804224 77.85580883730738 -4.3407207328286415 2.597107769711162 71.96003240181066 -2.3912483255217802 -0.5024520707345576 80.02756553991381 -9.496760241869199 1.2866970088595304 66.31170744525981 -5.356184782536102 4.084954200466114 86.54735880903485 -3.5553286075765764 -2.4990272372285354 66.22888787810665 -18.510110302136752 -2.2740540629483355 73.44157733306322 -4.284526326371749 5.109162942920682 91.69205504210439 -2.91674726956278 -3.3010839932670124 68.69024722611526 0.025274034164893277 4.975643616636606 -16.816155484183618 -35.83024862841732 13.122149898959186 -3.5850049867106324 20.237760041543563 -5.642302530838101 4.033201170059978 -2.2685473263987146 -26.142307211064637 -1.1941187737238939 17.52462935324923 41.68448081981508 13.555932552136023 0.8296101468287839 -2.2190750977741387 -3.717565774587216 -0.3736425392882075 -0.4652835232494022 -0.38356494222979026 -13.358119269573855 8.627324134445841 1.501914256506273 5.520794226714737 13.615081706733617 -4.72052001374013 2.769519628677113 26.440975130056756 3.8614748005889483 7.7367306470152615 -41.026037553466544 -8.747788460039942
